<mxfile host="app.diagrams.net" modified="2024-02-17T02:04:04.006Z" agent="Mozilla/5.0 (Windows NT 10.0; Win64; x64) AppleWebKit/537.36 (KHTML, like Gecko) Chrome/121.0.0.0 Safari/537.36" version="23.1.5" etag="XOsAh5QoOZ1NGHUXpeGT" type="github">
  <diagram name="第 1 页" id="Wwy3W03uJtm263UjFgZF">
    <mxGraphModel>
      <root>
        <mxCell id="0" />
        <mxCell id="1" parent="0" />
      </root>
    </mxGraphModel>
  </diagram>
</mxfile>
